<?xml version="1.0" encoding="UTF-8" standalone="no"?>
<!DOCTYPE svg PUBLIC "-//W3C//DTD SVG 1.1//EN"
 "http://www.w3.org/Graphics/SVG/1.1/DTD/svg11.dtd">
<!-- Generated by graphviz version 2.47.0 (20210316.0004)
 -->
<!-- Title: dependencies Pages: 1 -->
<svg width="1484pt" height="284pt"
 viewBox="0.00 0.00 1484.00 284.00" xmlns="http://www.w3.org/2000/svg" xmlns:xlink="http://www.w3.org/1999/xlink">
<g id="graph0" class="graph" transform="scale(1 1) rotate(0) translate(4 280)">
<title>dependencies</title>
<polygon fill="white" stroke="transparent" points="-4,4 -4,-280 1480,-280 1480,4 -4,4"/>
<text text-anchor="start" x="717.01" y="-42.4" font-family="Times-12" font-weight="bold" font-size="14.00">Legend</text>
<polygon fill="#ffffb3" stroke="transparent" points="504,-10 504,-30 524,-30 524,-10 504,-10"/>
<text text-anchor="start" x="527.63" y="-15.4" font-family="Times-12" font-size="14.00"> &#160;Declarations</text>
<polygon fill="#8dd3c7" stroke="transparent" points="617,-10 617,-30 637,-30 637,-10 617,-10"/>
<text text-anchor="start" x="640.73" y="-15.4" font-family="Times-12" font-size="14.00"> &#160;Module</text>
<polygon fill="#80b1d3" stroke="transparent" points="703,-10 703,-30 723,-30 723,-10 703,-10"/>
<text text-anchor="start" x="726.78" y="-15.4" font-family="Times-12" font-size="14.00"> &#160;Bootstrap</text>
<polygon fill="#fdb462" stroke="transparent" points="800,-10 800,-30 820,-30 820,-10 800,-10"/>
<text text-anchor="start" x="823.67" y="-15.4" font-family="Times-12" font-size="14.00"> &#160;Providers</text>
<polygon fill="#fb8072" stroke="transparent" points="896,-10 896,-30 916,-30 916,-10 896,-10"/>
<text text-anchor="start" x="919.73" y="-15.4" font-family="Times-12" font-size="14.00"> &#160;Exports</text>
<g id="clust1" class="cluster">
<title>cluster_AppModule</title>
<polygon fill="none" stroke="black" stroke-dasharray="1,5" points="8,-70 8,-268 1468,-268 1468,-70 8,-70"/>
</g>
<g id="clust12" class="cluster">
<title>cluster_AppModule_imports</title>
<polygon fill="none" stroke="black" points="1316,-78 1316,-130 1460,-130 1460,-78 1316,-78"/>
</g>
<g id="clust14" class="cluster">
<title>cluster_AppModule_bootstrap</title>
<polygon fill="none" stroke="black" points="693,-208 693,-260 817,-260 817,-208 693,-208"/>
</g>
<g id="clust2" class="cluster">
<title>cluster_AppModule_declarations</title>
<polygon fill="none" stroke="black" points="16,-78 16,-130 1308,-130 1308,-78 16,-78"/>
</g>
<!-- AppComponent -->
<g id="node1" class="node">
<title>AppComponent</title>
<polygon fill="#ffffb3" stroke="black" points="1299.94,-122 1194.06,-122 1194.06,-86 1299.94,-86 1299.94,-122"/>
<text text-anchor="middle" x="1247" y="-99.8" font-family="Times,serif" font-size="14.00">AppComponent</text>
</g>
<!-- AppModule -->
<g id="node10" class="node">
<title>AppModule</title>
<polygon fill="#8dd3c7" stroke="black" points="796.66,-187 793.66,-191 772.66,-191 769.66,-187 713.34,-187 713.34,-151 796.66,-151 796.66,-187"/>
<text text-anchor="middle" x="755" y="-164.8" font-family="Times,serif" font-size="14.00">AppModule</text>
</g>
<!-- AppComponent&#45;&gt;AppModule -->
<g id="edge1" class="edge">
<title>AppComponent&#45;&gt;AppModule</title>
<path fill="none" stroke="black" d="M1247,-122.13C1247,-142.57 1247,-173 1247,-173 1247,-173 806.95,-173 806.95,-173"/>
<polygon fill="black" stroke="black" points="806.95,-169.5 796.95,-173 806.95,-176.5 806.95,-169.5"/>
</g>
<!-- AppHomeComponent -->
<g id="node2" class="node">
<title>AppHomeComponent</title>
<polygon fill="#ffffb3" stroke="black" points="1175.65,-122 1036.35,-122 1036.35,-86 1175.65,-86 1175.65,-122"/>
<text text-anchor="middle" x="1106" y="-99.8" font-family="Times,serif" font-size="14.00">AppHomeComponent</text>
</g>
<!-- AppHomeComponent&#45;&gt;AppModule -->
<g id="edge2" class="edge">
<title>AppHomeComponent&#45;&gt;AppModule</title>
<path fill="none" stroke="black" d="M1106,-122.27C1106,-140.56 1106,-166 1106,-166 1106,-166 806.99,-166 806.99,-166"/>
<polygon fill="black" stroke="black" points="806.99,-162.5 796.99,-166 806.99,-169.5 806.99,-162.5"/>
</g>
<!-- CallComponent -->
<g id="node3" class="node">
<title>CallComponent</title>
<polygon fill="#ffffb3" stroke="black" points="1018.17,-122 913.83,-122 913.83,-86 1018.17,-86 1018.17,-122"/>
<text text-anchor="middle" x="966" y="-99.8" font-family="Times,serif" font-size="14.00">CallComponent</text>
</g>
<!-- CallComponent&#45;&gt;AppModule -->
<g id="edge3" class="edge">
<title>CallComponent&#45;&gt;AppModule</title>
<path fill="none" stroke="black" d="M966,-122.01C966,-138.05 966,-159 966,-159 966,-159 806.69,-159 806.69,-159"/>
<polygon fill="black" stroke="black" points="806.69,-155.5 796.69,-159 806.69,-162.5 806.69,-155.5"/>
</g>
<!-- CallFormComponent -->
<g id="node4" class="node">
<title>CallFormComponent</title>
<polygon fill="#ffffb3" stroke="black" points="895.5,-122 760.5,-122 760.5,-86 895.5,-86 895.5,-122"/>
<text text-anchor="middle" x="828" y="-99.8" font-family="Times,serif" font-size="14.00">CallFormComponent</text>
</g>
<!-- CallFormComponent&#45;&gt;AppModule -->
<g id="edge4" class="edge">
<title>CallFormComponent&#45;&gt;AppModule</title>
<path fill="none" stroke="black" d="M778.66,-122.11C778.66,-122.11 778.66,-140.99 778.66,-140.99"/>
<polygon fill="black" stroke="black" points="775.16,-140.99 778.66,-150.99 782.16,-140.99 775.16,-140.99"/>
</g>
<!-- HeaderComponent -->
<g id="node5" class="node">
<title>HeaderComponent</title>
<polygon fill="#ffffb3" stroke="black" points="742.74,-122 621.26,-122 621.26,-86 742.74,-86 742.74,-122"/>
<text text-anchor="middle" x="682" y="-99.8" font-family="Times,serif" font-size="14.00">HeaderComponent</text>
</g>
<!-- HeaderComponent&#45;&gt;AppModule -->
<g id="edge5" class="edge">
<title>HeaderComponent&#45;&gt;AppModule</title>
<path fill="none" stroke="black" d="M728.02,-122.11C728.02,-122.11 728.02,-140.99 728.02,-140.99"/>
<polygon fill="black" stroke="black" points="724.52,-140.99 728.02,-150.99 731.52,-140.99 724.52,-140.99"/>
</g>
<!-- LoginComponent -->
<g id="node6" class="node">
<title>LoginComponent</title>
<polygon fill="#ffffb3" stroke="black" points="603.28,-122 488.72,-122 488.72,-86 603.28,-86 603.28,-122"/>
<text text-anchor="middle" x="546" y="-99.8" font-family="Times,serif" font-size="14.00">LoginComponent</text>
</g>
<!-- LoginComponent&#45;&gt;AppModule -->
<g id="edge6" class="edge">
<title>LoginComponent&#45;&gt;AppModule</title>
<path fill="none" stroke="black" d="M546,-122.01C546,-138.05 546,-159 546,-159 546,-159 703.21,-159 703.21,-159"/>
<polygon fill="black" stroke="black" points="703.21,-162.5 713.21,-159 703.21,-155.5 703.21,-162.5"/>
</g>
<!-- MessageComponent -->
<g id="node7" class="node">
<title>MessageComponent</title>
<polygon fill="#ffffb3" stroke="black" points="470.31,-122 339.69,-122 339.69,-86 470.31,-86 470.31,-122"/>
<text text-anchor="middle" x="405" y="-99.8" font-family="Times,serif" font-size="14.00">MessageComponent</text>
</g>
<!-- MessageComponent&#45;&gt;AppModule -->
<g id="edge7" class="edge">
<title>MessageComponent&#45;&gt;AppModule</title>
<path fill="none" stroke="black" d="M405,-122.27C405,-140.56 405,-166 405,-166 405,-166 703.13,-166 703.13,-166"/>
<polygon fill="black" stroke="black" points="703.13,-169.5 713.13,-166 703.13,-162.5 703.13,-169.5"/>
</g>
<!-- SearchComponent -->
<g id="node8" class="node">
<title>SearchComponent</title>
<polygon fill="#ffffb3" stroke="black" points="321.92,-122 202.08,-122 202.08,-86 321.92,-86 321.92,-122"/>
<text text-anchor="middle" x="262" y="-99.8" font-family="Times,serif" font-size="14.00">SearchComponent</text>
</g>
<!-- SearchComponent&#45;&gt;AppModule -->
<g id="edge8" class="edge">
<title>SearchComponent&#45;&gt;AppModule</title>
<path fill="none" stroke="black" d="M262,-122.13C262,-142.57 262,-173 262,-173 262,-173 702.97,-173 702.97,-173"/>
<polygon fill="black" stroke="black" points="702.97,-176.5 712.97,-173 702.97,-169.5 702.97,-176.5"/>
</g>
<!-- SearchResultsComponent -->
<g id="node9" class="node">
<title>SearchResultsComponent</title>
<polygon fill="#ffffb3" stroke="black" points="184.14,-122 23.86,-122 23.86,-86 184.14,-86 184.14,-122"/>
<text text-anchor="middle" x="104" y="-99.8" font-family="Times,serif" font-size="14.00">SearchResultsComponent</text>
</g>
<!-- SearchResultsComponent&#45;&gt;AppModule -->
<g id="edge9" class="edge">
<title>SearchResultsComponent&#45;&gt;AppModule</title>
<path fill="none" stroke="black" d="M104,-122.01C104,-144.49 104,-180 104,-180 104,-180 703.29,-180 703.29,-180"/>
<polygon fill="black" stroke="black" points="703.29,-183.5 713.29,-180 703.29,-176.5 703.29,-183.5"/>
</g>
<!-- AppComponent  -->
<g id="node12" class="node">
<title>AppComponent </title>
<polygon fill="#80b1d3" stroke="black" points="809.44,-252 700.56,-252 700.56,-216 809.44,-216 809.44,-252"/>
<text text-anchor="middle" x="755" y="-229.8" font-family="Times,serif" font-size="14.00">AppComponent </text>
</g>
<!-- AppModule&#45;&gt;AppComponent  -->
<g id="edge11" class="edge">
<title>AppModule&#45;&gt;AppComponent </title>
<path fill="none" stroke="black" stroke-dasharray="1,5" d="M755,-187.11C755,-187.11 755,-205.99 755,-205.99"/>
<polygon fill="black" stroke="black" points="751.5,-205.99 755,-215.99 758.5,-205.99 751.5,-205.99"/>
</g>
<!-- AppRoutingModule -->
<g id="node11" class="node">
<title>AppRoutingModule</title>
<polygon fill="#8dd3c7" stroke="black" points="1452.27,-122 1449.27,-126 1428.27,-126 1425.27,-122 1323.73,-122 1323.73,-86 1452.27,-86 1452.27,-122"/>
<text text-anchor="middle" x="1388" y="-99.8" font-family="Times,serif" font-size="14.00">AppRoutingModule</text>
</g>
<!-- AppRoutingModule&#45;&gt;AppModule -->
<g id="edge10" class="edge">
<title>AppRoutingModule&#45;&gt;AppModule</title>
<path fill="none" stroke="black" d="M1388,-122.01C1388,-144.49 1388,-180 1388,-180 1388,-180 807.02,-180 807.02,-180"/>
<polygon fill="black" stroke="black" points="807.02,-176.5 797.02,-180 807.02,-183.5 807.02,-176.5"/>
</g>
</g>
</svg>
