<?xml version="1.0" encoding="UTF-8" standalone="no"?>
<!DOCTYPE svg PUBLIC "-//W3C//DTD SVG 1.1//EN"
 "http://www.w3.org/Graphics/SVG/1.1/DTD/svg11.dtd">
<!-- Generated by graphviz version 2.47.0 (20210316.0004)
 -->
<!-- Title: dependencies Pages: 1 -->
<svg width="1484pt" height="284pt"
 viewBox="0.00 0.00 1484.00 284.00" xmlns="http://www.w3.org/2000/svg" xmlns:xlink="http://www.w3.org/1999/xlink">
<g id="graph0" class="graph" transform="scale(1 1) rotate(0) translate(4 280)">
<title>dependencies</title>
<polygon fill="white" stroke="transparent" points="-4,4 -4,-280 1480,-280 1480,4 -4,4"/>
<text text-anchor="start" x="717.01" y="-42.4" font-family="Times-12" font-weight="bold" font-size="14.00">Legend</text>
<polygon fill="#ffffb3" stroke="transparent" points="504,-10 504,-30 524,-30 524,-10 504,-10"/>
<text text-anchor="start" x="527.63" y="-15.4" font-family="Times-12" font-size="14.00"> &#160;Declarations</text>
<polygon fill="#8dd3c7" stroke="transparent" points="617,-10 617,-30 637,-30 637,-10 617,-10"/>
<text text-anchor="start" x="640.73" y="-15.4" font-family="Times-12" font-size="14.00"> &#160;Module</text>
<polygon fill="#80b1d3" stroke="transparent" points="703,-10 703,-30 723,-30 723,-10 703,-10"/>
<text text-anchor="start" x="726.78" y="-15.4" font-family="Times-12" font-size="14.00"> &#160;Bootstrap</text>
<polygon fill="#fdb462" stroke="transparent" points="800,-10 800,-30 820,-30 820,-10 800,-10"/>
<text text-anchor="start" x="823.67" y="-15.4" font-family="Times-12" font-size="14.00"> &#160;Providers</text>
<polygon fill="#fb8072" stroke="transparent" points="896,-10 896,-30 916,-30 916,-10 896,-10"/>
<text text-anchor="start" x="919.73" y="-15.4" font-family="Times-12" font-size="14.00"> &#160;Exports</text>
<g id="clust1" class="cluster">
<title>cluster_AppModule</title>
<polygon fill="none" stroke="black" stroke-dasharray="1,5" points="8,-70 8,-268 1468,-268 1468,-70 8,-70"/>
</g>
<g id="clust2" class="cluster">
<title>cluster_AppModule_declarations</title>
<polygon fill="none" stroke="black" points="168,-78 168,-130 1460,-130 1460,-78 168,-78"/>
</g>
<g id="clust12" class="cluster">
<title>cluster_AppModule_imports</title>
<polygon fill="none" stroke="black" points="16,-78 16,-130 160,-130 160,-78 16,-78"/>
</g>
<g id="clust14" class="cluster">
<title>cluster_AppModule_bootstrap</title>
<polygon fill="none" stroke="black" points="704,-208 704,-260 828,-260 828,-208 704,-208"/>
</g>
<!-- AppComponent -->
<g id="node1" class="node">
<title>AppComponent</title>
<polygon fill="#ffffb3" stroke="black" points="1451.94,-122 1346.06,-122 1346.06,-86 1451.94,-86 1451.94,-122"/>
<text text-anchor="middle" x="1399" y="-99.8" font-family="Times,serif" font-size="14.00">AppComponent</text>
</g>
<!-- AppModule -->
<g id="node10" class="node">
<title>AppModule</title>
<polygon fill="#8dd3c7" stroke="black" points="807.66,-187 804.66,-191 783.66,-191 780.66,-187 724.34,-187 724.34,-151 807.66,-151 807.66,-187"/>
<text text-anchor="middle" x="766" y="-164.8" font-family="Times,serif" font-size="14.00">AppModule</text>
</g>
<!-- AppComponent&#45;&gt;AppModule -->
<g id="edge1" class="edge">
<title>AppComponent&#45;&gt;AppModule</title>
<path fill="none" stroke="black" d="M1399,-122.01C1399,-144.49 1399,-180 1399,-180 1399,-180 818.02,-180 818.02,-180"/>
<polygon fill="black" stroke="black" points="818.02,-176.5 808.02,-180 818.02,-183.5 818.02,-176.5"/>
</g>
<!-- AppHomeComponent -->
<g id="node2" class="node">
<title>AppHomeComponent</title>
<polygon fill="#ffffb3" stroke="black" points="1327.65,-122 1188.35,-122 1188.35,-86 1327.65,-86 1327.65,-122"/>
<text text-anchor="middle" x="1258" y="-99.8" font-family="Times,serif" font-size="14.00">AppHomeComponent</text>
</g>
<!-- AppHomeComponent&#45;&gt;AppModule -->
<g id="edge2" class="edge">
<title>AppHomeComponent&#45;&gt;AppModule</title>
<path fill="none" stroke="black" d="M1258,-122.13C1258,-142.57 1258,-173 1258,-173 1258,-173 817.95,-173 817.95,-173"/>
<polygon fill="black" stroke="black" points="817.95,-169.5 807.95,-173 817.95,-176.5 817.95,-169.5"/>
</g>
<!-- CallComponent -->
<g id="node3" class="node">
<title>CallComponent</title>
<polygon fill="#ffffb3" stroke="black" points="1170.17,-122 1065.83,-122 1065.83,-86 1170.17,-86 1170.17,-122"/>
<text text-anchor="middle" x="1118" y="-99.8" font-family="Times,serif" font-size="14.00">CallComponent</text>
</g>
<!-- CallComponent&#45;&gt;AppModule -->
<g id="edge3" class="edge">
<title>CallComponent&#45;&gt;AppModule</title>
<path fill="none" stroke="black" d="M1118,-122.27C1118,-140.56 1118,-166 1118,-166 1118,-166 817.76,-166 817.76,-166"/>
<polygon fill="black" stroke="black" points="817.76,-162.5 807.76,-166 817.76,-169.5 817.76,-162.5"/>
</g>
<!-- CallFormComponent -->
<g id="node4" class="node">
<title>CallFormComponent</title>
<polygon fill="#ffffb3" stroke="black" points="1047.5,-122 912.5,-122 912.5,-86 1047.5,-86 1047.5,-122"/>
<text text-anchor="middle" x="980" y="-99.8" font-family="Times,serif" font-size="14.00">CallFormComponent</text>
</g>
<!-- CallFormComponent&#45;&gt;AppModule -->
<g id="edge4" class="edge">
<title>CallFormComponent&#45;&gt;AppModule</title>
<path fill="none" stroke="black" d="M980,-122.01C980,-138.05 980,-159 980,-159 980,-159 817.77,-159 817.77,-159"/>
<polygon fill="black" stroke="black" points="817.77,-155.5 807.77,-159 817.77,-162.5 817.77,-155.5"/>
</g>
<!-- HeaderComponent -->
<g id="node5" class="node">
<title>HeaderComponent</title>
<polygon fill="#ffffb3" stroke="black" points="894.74,-122 773.26,-122 773.26,-86 894.74,-86 894.74,-122"/>
<text text-anchor="middle" x="834" y="-99.8" font-family="Times,serif" font-size="14.00">HeaderComponent</text>
</g>
<!-- HeaderComponent&#45;&gt;AppModule -->
<g id="edge5" class="edge">
<title>HeaderComponent&#45;&gt;AppModule</title>
<path fill="none" stroke="black" d="M790.48,-122.11C790.48,-122.11 790.48,-140.99 790.48,-140.99"/>
<polygon fill="black" stroke="black" points="786.98,-140.99 790.48,-150.99 793.98,-140.99 786.98,-140.99"/>
</g>
<!-- LoginComponent -->
<g id="node6" class="node">
<title>LoginComponent</title>
<polygon fill="#ffffb3" stroke="black" points="755.28,-122 640.72,-122 640.72,-86 755.28,-86 755.28,-122"/>
<text text-anchor="middle" x="698" y="-99.8" font-family="Times,serif" font-size="14.00">LoginComponent</text>
</g>
<!-- LoginComponent&#45;&gt;AppModule -->
<g id="edge6" class="edge">
<title>LoginComponent&#45;&gt;AppModule</title>
<path fill="none" stroke="black" d="M739.78,-122.11C739.78,-122.11 739.78,-140.99 739.78,-140.99"/>
<polygon fill="black" stroke="black" points="736.28,-140.99 739.78,-150.99 743.28,-140.99 736.28,-140.99"/>
</g>
<!-- MessageComponent -->
<g id="node7" class="node">
<title>MessageComponent</title>
<polygon fill="#ffffb3" stroke="black" points="622.31,-122 491.69,-122 491.69,-86 622.31,-86 622.31,-122"/>
<text text-anchor="middle" x="557" y="-99.8" font-family="Times,serif" font-size="14.00">MessageComponent</text>
</g>
<!-- MessageComponent&#45;&gt;AppModule -->
<g id="edge7" class="edge">
<title>MessageComponent&#45;&gt;AppModule</title>
<path fill="none" stroke="black" d="M557,-122.01C557,-138.05 557,-159 557,-159 557,-159 714.21,-159 714.21,-159"/>
<polygon fill="black" stroke="black" points="714.21,-162.5 724.21,-159 714.21,-155.5 714.21,-162.5"/>
</g>
<!-- SearchComponent -->
<g id="node8" class="node">
<title>SearchComponent</title>
<polygon fill="#ffffb3" stroke="black" points="473.92,-122 354.08,-122 354.08,-86 473.92,-86 473.92,-122"/>
<text text-anchor="middle" x="414" y="-99.8" font-family="Times,serif" font-size="14.00">SearchComponent</text>
</g>
<!-- SearchComponent&#45;&gt;AppModule -->
<g id="edge8" class="edge">
<title>SearchComponent&#45;&gt;AppModule</title>
<path fill="none" stroke="black" d="M414,-122.27C414,-140.56 414,-166 414,-166 414,-166 714.24,-166 714.24,-166"/>
<polygon fill="black" stroke="black" points="714.24,-169.5 724.24,-166 714.24,-162.5 714.24,-169.5"/>
</g>
<!-- SearchResultsComponent -->
<g id="node9" class="node">
<title>SearchResultsComponent</title>
<polygon fill="#ffffb3" stroke="black" points="336.14,-122 175.86,-122 175.86,-86 336.14,-86 336.14,-122"/>
<text text-anchor="middle" x="256" y="-99.8" font-family="Times,serif" font-size="14.00">SearchResultsComponent</text>
</g>
<!-- SearchResultsComponent&#45;&gt;AppModule -->
<g id="edge9" class="edge">
<title>SearchResultsComponent&#45;&gt;AppModule</title>
<path fill="none" stroke="black" d="M256,-122.13C256,-142.57 256,-173 256,-173 256,-173 714.26,-173 714.26,-173"/>
<polygon fill="black" stroke="black" points="714.26,-176.5 724.26,-173 714.26,-169.5 714.26,-176.5"/>
</g>
<!-- AppComponent  -->
<g id="node12" class="node">
<title>AppComponent </title>
<polygon fill="#80b1d3" stroke="black" points="820.44,-252 711.56,-252 711.56,-216 820.44,-216 820.44,-252"/>
<text text-anchor="middle" x="766" y="-229.8" font-family="Times,serif" font-size="14.00">AppComponent </text>
</g>
<!-- AppModule&#45;&gt;AppComponent  -->
<g id="edge11" class="edge">
<title>AppModule&#45;&gt;AppComponent </title>
<path fill="none" stroke="black" stroke-dasharray="1,5" d="M766,-187.11C766,-187.11 766,-205.99 766,-205.99"/>
<polygon fill="black" stroke="black" points="762.5,-205.99 766,-215.99 769.5,-205.99 762.5,-205.99"/>
</g>
<!-- AppRoutingModule -->
<g id="node11" class="node">
<title>AppRoutingModule</title>
<polygon fill="#8dd3c7" stroke="black" points="152.27,-122 149.27,-126 128.27,-126 125.27,-122 23.73,-122 23.73,-86 152.27,-86 152.27,-122"/>
<text text-anchor="middle" x="88" y="-99.8" font-family="Times,serif" font-size="14.00">AppRoutingModule</text>
</g>
<!-- AppRoutingModule&#45;&gt;AppModule -->
<g id="edge10" class="edge">
<title>AppRoutingModule&#45;&gt;AppModule</title>
<path fill="none" stroke="black" d="M88,-122.01C88,-144.49 88,-180 88,-180 88,-180 714.1,-180 714.1,-180"/>
<polygon fill="black" stroke="black" points="714.1,-183.5 724.1,-180 714.1,-176.5 714.1,-183.5"/>
</g>
</g>
</svg>
